<svg width="60" height="61" viewBox="0 0 60 61" fill="none" xmlns="http://www.w3.org/2000/svg">
<path d="M0 4.76918C0 2.39543 1.9725 0.47168 4.40625 0.47168H55.5938C58.0275 0.47168 60 2.39543 60 4.76918V56.1742C60 58.5479 58.0275 60.4717 55.5938 60.4717H4.40625C1.9725 60.4717 0 58.5479 0 56.1742V4.76918ZM18.5362 50.6992V23.6054H9.5325V50.6992H18.5362ZM14.0363 19.9042C17.175 19.9042 19.1287 17.8267 19.1287 15.2242C19.0725 12.5654 17.1788 10.5442 14.0963 10.5442C11.0138 10.5442 9 12.5692 9 15.2242C9 17.8267 10.9537 19.9042 13.9762 19.9042H14.0363ZM32.4412 50.6992V35.5679C32.4412 34.7579 32.5012 33.9479 32.7412 33.3704C33.39 31.7542 34.8713 30.0779 37.3613 30.0779C40.62 30.0779 41.9212 32.5604 41.9212 36.2054V50.6992H50.925V35.1592C50.925 26.8342 46.485 22.9642 40.56 22.9642C35.7825 22.9642 33.6412 25.5892 32.4412 27.4379V27.5317H32.3813C32.4012 27.5004 32.4212 27.4691 32.4412 27.4379V23.6054H23.4412C23.5537 26.1479 23.4412 50.6992 23.4412 50.6992H32.4412Z" fill="#140A21"/>
</svg>
